<mxfile host="app.diagrams.net" modified="2020-08-24T14:33:29.760Z" agent="5.0 (Windows NT 10.0; Win64; x64) AppleWebKit/537.36 (KHTML, like Gecko) Chrome/74.0.3729.169 Safari/537.36" etag="IkXaHKGEQ5EEuQG3kxBs" version="13.6.4" type="github">
  <diagram id="cMFu8bPt36eml-wiIvfP" name="Page-1">
    <mxGraphModel dx="1396" dy="762" grid="1" gridSize="10" guides="1" tooltips="1" connect="1" arrows="1" fold="1" page="1" pageScale="1" pageWidth="827" pageHeight="1169" math="0" shadow="0">
      <root>
        <mxCell id="0" />
        <mxCell id="1" parent="0" />
        <mxCell id="Heedlt19dEAGoY0HUDeh-1" value="&lt;div&gt;{&lt;/div&gt;&lt;div&gt;&amp;nbsp; &amp;nbsp; &quot;salary_money&quot;:&quot;3080&quot;,&lt;/div&gt;&lt;div&gt;&amp;nbsp; &amp;nbsp; ......&lt;/div&gt;&lt;div&gt;}&lt;/div&gt;" style="rounded=0;whiteSpace=wrap;html=1;align=left;" vertex="1" parent="1">
          <mxGeometry x="60" y="147.5" width="160" height="130" as="geometry" />
        </mxCell>
        <mxCell id="Heedlt19dEAGoY0HUDeh-3" value="&lt;div&gt;......&lt;/div&gt;&lt;div&gt;{&lt;/div&gt;&lt;div&gt;&amp;nbsp; &amp;nbsp; &amp;nbsp; &amp;nbsp; &amp;nbsp; &amp;nbsp; &amp;nbsp; &amp;nbsp; &quot;quota_message&quot;:&quot;卖大米奖励金额&quot;，&lt;/div&gt;&lt;div&gt;&amp;nbsp; &amp;nbsp; &amp;nbsp; &amp;nbsp; &amp;nbsp; &amp;nbsp; &amp;nbsp; &amp;nbsp; &quot;quota_type&quot;:1，&lt;/div&gt;&lt;div&gt;&amp;nbsp; &amp;nbsp; &amp;nbsp; &amp;nbsp; &amp;nbsp; &amp;nbsp; &amp;nbsp; &amp;nbsp; &quot;fields_list&quot;:{&lt;/div&gt;&lt;div&gt;&amp;nbsp; &amp;nbsp; &amp;nbsp; &amp;nbsp; &amp;nbsp; &amp;nbsp; &amp;nbsp; &amp;nbsp; &amp;nbsp; &amp;nbsp; &quot;quota_field&quot;:&quot;salary_money&quot;&lt;/div&gt;&lt;div&gt;&amp;nbsp; &amp;nbsp; &amp;nbsp; &amp;nbsp; &amp;nbsp; &amp;nbsp; &amp;nbsp; &amp;nbsp; },&lt;/div&gt;&lt;div&gt;&amp;nbsp; &amp;nbsp; &amp;nbsp; &amp;nbsp; &amp;nbsp; &amp;nbsp; &amp;nbsp; &amp;nbsp; &quot;name_list&quot;:{&lt;/div&gt;&lt;div&gt;&amp;nbsp; &amp;nbsp; &amp;nbsp; &amp;nbsp; &amp;nbsp; &amp;nbsp; &amp;nbsp; &amp;nbsp; &amp;nbsp; &amp;nbsp; &quot;quota_name&quot;:&quot;奖励金额&quot;&lt;/div&gt;&lt;div&gt;&amp;nbsp; &amp;nbsp; &amp;nbsp; &amp;nbsp; &amp;nbsp; &amp;nbsp; &amp;nbsp; &amp;nbsp; },&lt;/div&gt;&lt;div&gt;&amp;nbsp; &amp;nbsp; &amp;nbsp; &amp;nbsp; &amp;nbsp; &amp;nbsp; &amp;nbsp; &amp;nbsp; &quot;quota_status&quot;:1,&lt;/div&gt;&lt;div&gt;&amp;nbsp; &amp;nbsp; &amp;nbsp; &amp;nbsp; &amp;nbsp; &amp;nbsp; &amp;nbsp; &amp;nbsp; &quot;valid_date&quot;:&quot;20200801 00:00:00-20200831 23:59:59&quot;&lt;/div&gt;&lt;div&gt;&amp;nbsp;},&lt;/div&gt;&lt;div&gt;.......&lt;/div&gt;" style="rounded=0;whiteSpace=wrap;html=1;align=left;" vertex="1" parent="1">
          <mxGeometry x="300" y="110" width="500" height="205" as="geometry" />
        </mxCell>
        <mxCell id="Heedlt19dEAGoY0HUDeh-4" value="MySQL指标(crm_perf_income_visu_quota&amp;nbsp;)" style="text;html=1;strokeColor=none;fillColor=none;align=center;verticalAlign=middle;whiteSpace=wrap;rounded=0;" vertex="1" parent="1">
          <mxGeometry x="40" y="120" width="210" height="15" as="geometry" />
        </mxCell>
        <mxCell id="Heedlt19dEAGoY0HUDeh-6" value="CSP指标配置" style="text;html=1;strokeColor=none;fillColor=none;align=center;verticalAlign=middle;whiteSpace=wrap;rounded=0;" vertex="1" parent="1">
          <mxGeometry x="490" y="80" width="120" height="15" as="geometry" />
        </mxCell>
        <mxCell id="Heedlt19dEAGoY0HUDeh-9" value="" style="endArrow=none;html=1;" edge="1" parent="1">
          <mxGeometry width="50" height="50" relative="1" as="geometry">
            <mxPoint x="560" y="400" as="sourcePoint" />
            <mxPoint x="560" y="315" as="targetPoint" />
          </mxGeometry>
        </mxCell>
        <mxCell id="Heedlt19dEAGoY0HUDeh-10" value="" style="endArrow=none;html=1;entryX=0.5;entryY=1;entryDx=0;entryDy=0;" edge="1" parent="1" target="Heedlt19dEAGoY0HUDeh-1">
          <mxGeometry width="50" height="50" relative="1" as="geometry">
            <mxPoint x="140" y="400" as="sourcePoint" />
            <mxPoint x="160" y="350" as="targetPoint" />
          </mxGeometry>
        </mxCell>
        <mxCell id="Heedlt19dEAGoY0HUDeh-11" value="" style="endArrow=none;html=1;" edge="1" parent="1">
          <mxGeometry width="50" height="50" relative="1" as="geometry">
            <mxPoint x="140" y="400" as="sourcePoint" />
            <mxPoint x="560" y="400" as="targetPoint" />
          </mxGeometry>
        </mxCell>
        <mxCell id="Heedlt19dEAGoY0HUDeh-12" value="" style="endArrow=classic;html=1;" edge="1" parent="1">
          <mxGeometry width="50" height="50" relative="1" as="geometry">
            <mxPoint x="360" y="400" as="sourcePoint" />
            <mxPoint x="360" y="480" as="targetPoint" />
          </mxGeometry>
        </mxCell>
        <mxCell id="Heedlt19dEAGoY0HUDeh-13" value="&lt;div&gt;{&lt;/div&gt;&lt;div&gt;&amp;nbsp; &amp;nbsp; &quot;quota_name&quot;:&quot;奖励金额&quot;,&lt;/div&gt;&lt;div&gt;&amp;nbsp; &amp;nbsp; &quot;quota_value&quot;:&quot;123,12.00&quot;,&lt;/div&gt;&lt;div&gt;&amp;nbsp; &amp;nbsp; &quot;quota_message&quot;:&quot;卖大米奖励金额,活动日期截至0811&quot;&lt;/div&gt;&lt;div&gt;}&lt;/div&gt;" style="rounded=0;whiteSpace=wrap;html=1;align=left;" vertex="1" parent="1">
          <mxGeometry x="210" y="480" width="320" height="180" as="geometry" />
        </mxCell>
      </root>
    </mxGraphModel>
  </diagram>
</mxfile>
